<?xml version="1.0" encoding="UTF-8"?><svg id="a" xmlns="http://www.w3.org/2000/svg" viewBox="0 0 460.45 512.35"><defs><style>.h{fill:#ec3e73;}.i{fill:#7a9a01;}</style></defs><g id="b"><g id="c"><path id="d" class="h" d="M217.53,86.59V12.69c0-7.01,5.68-12.69,12.69-12.69s12.69,5.68,12.69,12.69V86.59c0,7.01-5.68,12.69-12.69,12.69s-12.69-5.68-12.69-12.69ZM39.16,130.34l64,36.95c2,1.15,4.18,1.7,6.33,1.7,4.39,0,8.65-2.28,11.01-6.35,3.51-6.07,1.43-13.84-4.65-17.34l-64-36.95c-6.07-3.5-13.84-1.43-17.34,4.65s-1.43,13.84,4.65,17.34Zm386.78-17.34c-3.51-6.07-11.27-8.15-17.34-4.65l-64,36.95c-6.07,3.51-8.15,11.27-4.65,17.34,2.35,4.07,6.62,6.35,11.01,6.35,2.15,0,4.34-.55,6.33-1.7l64-36.95c6.07-3.51,8.15-11.27,4.65-17.34ZM120.49,289.35c-3.5-6.07-11.27-8.15-17.34-4.65l-64,36.95c-6.07,3.51-8.15,11.27-4.65,17.34,2.35,4.07,6.62,6.35,11.01,6.35,2.15,0,4.34-.55,6.33-1.7l64-36.95c6.07-3.51,8.15-11.27,4.65-17.34Zm300.8,32.3l-64-36.95c-6.07-3.5-13.84-1.42-17.34,4.65-3.51,6.07-1.43,13.84,4.65,17.34l64,36.95c2,1.15,4.18,1.7,6.33,1.7,4.39,0,8.66-2.28,11.01-6.35,3.51-6.07,1.43-13.84-4.65-17.34Z"/><path id="e" class="h" d="M282.38,458.3h-39.46v-23.23h29.04c7.01,0,12.69-5.68,12.69-12.69s-5.68-12.69-12.69-12.69h-29.04v-77.1c53.24-6.3,94.67-51.68,94.67-106.59,0-59.2-48.16-107.37-107.37-107.37s-107.36,48.16-107.36,107.37c0,54.9,41.43,100.28,94.67,106.59v167.07c0,7.01,5.68,12.69,12.69,12.69s12.69-5.68,12.69-12.69v-15.96h39.46c7.01,0,12.69-5.68,12.69-12.69s-5.68-12.69-12.69-12.69ZM148.25,225.99c0-45.2,36.77-81.98,81.97-81.98s81.98,36.77,81.98,81.98-36.77,81.97-81.98,81.97-81.97-36.77-81.97-81.97Z"/><path id="f" class="h" d="M282.27,271.61c0-4.21-3.41-7.62-7.62-7.62h-38.09v-15.12h7.65c20.98,0,38.06-17.07,38.06-38.06s-17.07-38.06-38.06-38.06h-30.52c-20.98,0-38.06,17.07-38.06,38.06s17.07,38.06,38.06,38.06h7.64v22.74c0,4.21,3.41,7.62,7.62,7.62h45.7c4.21,0,7.62-3.41,7.62-7.62Zm-15.23-60.79c0,12.58-10.24,22.82-22.82,22.82h-7.65v-45.65h7.65c12.58,0,22.82,10.24,22.82,22.82Zm-53.35,22.82c-12.58,0-22.82-10.24-22.82-22.82s10.24-22.82,22.82-22.82h7.64v45.65h-7.64Z"/><path id="g" class="i" d="M142.06,81.66c-2.99,0-5.78-1.61-7.28-4.2l-22.74-39.39c-1.12-1.94-1.42-4.2-.84-6.37,.58-2.17,1.97-3.97,3.91-5.1,1.28-.74,2.72-1.13,4.18-1.13,2.99,0,5.78,1.61,7.28,4.2l22.74,39.39c1.12,1.94,1.42,4.2,.84,6.37s-1.97,3.97-3.91,5.1c-1.28,.74-2.72,1.13-4.18,1.13ZM53.88,234.39c4.63,0,8.39-3.76,8.39-8.39s-3.76-8.39-8.39-8.39H8.39C3.76,217.6,0,221.37,0,225.99s3.76,8.39,8.39,8.39H53.88Zm72.7,187.92l22.74-39.39c1.12-1.94,1.42-4.2,.84-6.37s-1.97-3.97-3.91-5.1c-1.28-.74-2.72-1.13-4.18-1.13-3,0-5.78,1.61-7.28,4.2l-22.74,39.39c-1.12,1.94-1.42,4.2-.84,6.37s1.97,3.97,3.91,5.1c1.28,.74,2.72,1.13,4.18,1.13,3,0,5.78-1.61,7.28-4.2Zm218.76,3.07c1.94-1.12,3.33-2.93,3.91-5.1s.28-4.43-.84-6.37l-22.74-39.39c-1.49-2.59-4.28-4.2-7.28-4.2-1.46,0-2.91,.39-4.19,1.13-1.94,1.12-3.33,2.93-3.91,5.1s-.28,4.43,.84,6.37l22.74,39.39c1.5,2.59,4.28,4.2,7.28,4.2,1.46,0,2.91-.39,4.18-1.13Zm106.72-190.99c4.63,0,8.39-3.76,8.39-8.39s-3.76-8.39-8.39-8.39h-45.49c-4.63,0-8.39,3.76-8.39,8.39s3.76,8.39,8.39,8.39h45.49Zm-126.39-156.92l22.74-39.39c1.12-1.94,1.42-4.2,.84-6.37-.58-2.17-1.97-3.97-3.91-5.1-1.28-.74-2.72-1.13-4.18-1.13-2.99,0-5.78,1.61-7.28,4.2l-22.74,39.39c-2.31,4.01-.94,9.15,3.07,11.46,1.28,.74,2.72,1.13,4.18,1.13,3,0,5.78-1.61,7.28-4.2Z"/></g></g></svg>